<svg width="16" height="17" viewBox="0 0 16 17" fill="none" xmlns="http://www.w3.org/2000/svg">
<path fill-rule="evenodd" clip-rule="evenodd" d="M6.9363 1.07537C7.2018 0.810223 7.55702 0.654208 7.93189 0.638102C8.30676 0.621997 8.67405 0.746971 8.9613 0.988368L9.0573 1.07612L10.4823 2.50037H12.4968C12.8751 2.50044 13.2394 2.64345 13.5167 2.90075C13.7941 3.15804 13.9639 3.51063 13.9923 3.88787L13.9968 4.00037V6.01487L15.4218 7.43987C15.6872 7.7054 15.8433 8.06077 15.8594 8.43582C15.8755 8.81086 15.7504 9.17832 15.5088 9.46562L15.4211 9.56087L13.9961 10.9859V13.0004C13.9962 13.3788 13.8532 13.7433 13.5959 14.0208C13.3386 14.2983 12.9859 14.4682 12.6086 14.4966L12.4968 14.5004H10.4831L9.05805 15.9254C8.79252 16.1907 8.43715 16.3469 8.0621 16.363C7.68706 16.3791 7.31961 16.254 7.0323 16.0124L6.93705 15.9254L5.51205 14.5004H3.4968C3.11837 14.5005 2.75388 14.3576 2.47639 14.1002C2.19891 13.8429 2.02894 13.4902 2.00055 13.1129L1.9968 13.0004V10.9859L0.571804 9.56087C0.30645 9.29534 0.150302 8.93996 0.134195 8.56492C0.118088 8.18987 0.243192 7.82242 0.484804 7.53512L0.571804 7.43987L1.9968 6.01487V4.00037C1.99687 3.62206 2.13988 3.25776 2.39718 2.98043C2.65448 2.7031 3.00707 2.53324 3.3843 2.50487L3.4968 2.50037H5.5113L6.9363 1.07537ZM10.3061 6.23762L7.12305 9.42062L5.79705 8.09462C5.65632 7.95399 5.46549 7.87502 5.26654 7.87509C5.06759 7.87516 4.87681 7.95426 4.73618 8.09499C4.59555 8.23572 4.51658 8.42656 4.51665 8.62551C4.51672 8.82446 4.59582 9.01524 4.73655 9.15587L6.53955 10.9589C6.61617 11.0355 6.70713 11.0963 6.80725 11.1378C6.90737 11.1793 7.01468 11.2006 7.12305 11.2006C7.23143 11.2006 7.33874 11.1793 7.43886 11.1378C7.53898 11.0963 7.62994 11.0355 7.70655 10.9589L11.3666 7.29812C11.5032 7.15667 11.5788 6.96721 11.5771 6.77057C11.5754 6.57392 11.4965 6.38581 11.3574 6.24675C11.2184 6.1077 11.0303 6.02882 10.8336 6.02711C10.637 6.0254 10.4475 6.101 10.3061 6.23762Z" fill="#377FF5"/>
</svg>
