<svg width="12" height="13" viewBox="0 0 12 13" fill="none" xmlns="http://www.w3.org/2000/svg">
<path fill-rule="evenodd" clip-rule="evenodd" d="M0.164124 11.1955C0.164124 11.8231 0.661124 12.3306 1.27479 12.3306C1.27479 12.3306 6.87129 12.3353 7.66696 12.3306C9.39829 12.3505 10.4903 11.8441 10.9628 10.5363C11.0888 10.2026 11.7888 7.48896 11.7958 7.4563C11.9941 6.50196 11.3315 5.6678 10.3655 5.6678H7.89096C7.73579 5.6678 7.63429 5.54296 7.66579 5.3878C7.66579 5.3878 7.69262 4.8768 7.79179 4.1558C7.89096 3.4348 7.89096 2.85963 7.89096 2.36496C7.89096 1.87146 7.76262 1.33946 7.43596 1.01513C7.19679 0.775963 7.03696 0.757297 7.03696 0.757297C6.93749 0.706508 6.82866 0.676661 6.7172 0.669602C6.60573 0.662542 6.49401 0.67842 6.38893 0.716254C6.28385 0.754088 6.18764 0.813073 6.10626 0.889564C6.02488 0.966055 5.96005 1.05842 5.91579 1.16096C5.91579 1.16096 4.31979 4.88263 4.18796 5.1533C4.17159 5.18573 4.15287 5.21692 4.13196 5.24663L2.72029 8.34413C2.66779 8.45963 2.49746 8.42113 2.49746 8.2963V5.6678H1.27479C0.977018 5.67118 0.69277 5.79265 0.484509 6.0055C0.276248 6.21836 0.161012 6.50519 0.164124 6.80296V11.1955Z" fill="#3CB200"/>
</svg>
