<?xml version="1.0" encoding="UTF-8"?>
<svg id="_Слой_2" data-name="Слой 2" xmlns="http://www.w3.org/2000/svg" viewBox="0 0 51.61 51.03">
  <defs>
    <style>
      .cls-1 {
        fill: #fff;
      }
    </style>
  </defs>
  <g id="_Слой_1-2" data-name="Слой 1">
    <g id="EaYfMZ.tif">
      <path class="cls-1" d="M18.39,17.49c-.58,.15-1.12,.29-1.79,.47-.07-.93-.13-1.81-.19-2.73h-5.86c0,.28,0,.56,0,.83,.01,2.85-1.27,4.86-3.86,6.07-1.66,.77-2.55,2.12-2.56,3.95-.02,6.39-.01,12.78,0,19.17,0,2.19,1.64,3.92,3.82,3.95,3.3,.05,6.59,.01,9.89,.01,.04,0,.09-.02,.13-.03,0-.04,.01-.09,0-.11-1.08-1.27-1.45-2.74-1.44-4.39,.04-5.57,.02-11.13,.01-16.7,0-4.99,1.62-9.38,4.83-13.2,.66-.78,1.33-1.56,1.97-2.37,.15-.19,.25-.47,.26-.72,.02-1.6,.01-3.19,.01-4.79,0-.63,.71-1.33,1.35-1.33,2.37,0,4.74,0,7.11,0,.63,0,1.33,.72,1.33,1.35,0,1.6-.01,3.2,.01,4.79,0,.24,.11,.52,.26,.71,.87,1.09,1.85,2.1,2.64,3.24,.89,1.28,1.62,2.66,2.41,4,.08,.14,.12,.3,.2,.5-.56,.23-1.09,.45-1.66,.68-.68-1.6-1.52-3.07-2.6-4.39-.78-.95-1.56-1.89-2.37-2.82-.13-.15-.39-.28-.58-.28-2.15-.02-4.3-.02-6.46,0-.17,0-.4,.09-.51,.22-.89,1.03-1.79,2.06-2.61,3.14-2.48,3.24-3.76,6.91-3.77,11-.01,5.8,0,11.6,0,17.4,0,2.37,1.69,4.06,4.07,4.07,4.05,0,8.11,0,12.16,0,2.48,0,4.37-2.11,4-4.47-.47,.19-.93,.38-1.4,.55-3.42,1.25-6.95,1.66-10.56,1.21-.65-.08-1.19-.67-1.27-1.4-.44-3.87-.02-7.64,1.54-11.21,3.27-7.53,9.01-11.99,17.09-13.43,2.12-.38,4.25-.36,6.38-.08,.46,.06,1.08,.67,1.12,1.14,.91,9.49-2.59,16.86-10.63,22.02-.27,.18-.38,.34-.39,.67-.05,.9-.03,1.83-.26,2.69-.67,2.48-2.93,4.12-5.58,4.12-4.24,0-8.47-.01-12.71-.01-4.59,0-9.18,.02-13.77,.01-2.91,0-5.23-1.95-5.75-4.81-.07-.38-.07-.77-.07-1.16,0-6.26,0-12.51,0-18.77,0-2.77,1.29-4.73,3.78-5.91,1.68-.79,2.59-2.11,2.63-3.97,.04-1.95,.03-3.9,0-5.85-.01-.6-.19-1.2-.38-1.8-.66,1.48-1.53,2.72-2.9,3.55-1.37,.82-2.86,1.11-4.47,1.1v-1.74c.69-.1,1.38-.15,2.04-.32,2.05-.52,3.28-1.87,3.76-3.92,.09-.38,.01-.62-.36-.81-.72-.37-1.47-.56-2.28-.56-.94,0-1.88,0-2.83,0C.71,6.07,0,5.36,0,4.79c0-1.16,0-2.32,0-3.48C0,.75,.73,0,1.28,0,6.83,0,12.38,0,17.93,0c1.93,0,3.36,1.47,3.37,3.4,0,.39-.04,.78,.01,1.16,.1,.71-.15,1.24-.72,1.63-.14,.1-.31,.2-.48,.23-1.07,.19-1.82,1-1.83,2.09-.01,2.67,0,5.35,0,8.02,0,.3,.06,.6,.1,.95Zm10.06,27.28s.09,.06,.13,.06c.15,.02,.3,.03,.45,.03,1.77,.03,3.52-.16,5.25-.57,9.84-2.33,16.51-11.68,15.5-21.74-.04-.35-.16-.43-.49-.46-1.96-.18-3.89-.06-5.82,.3-9.51,1.77-16.58,10.35-16.47,20.02,0,.34,.03,.68,.06,1.18,5.09-5.09,10.06-10.06,14.97-14.97,.43,.41,.85,.8,1.32,1.25-4.96,4.96-9.93,9.93-14.9,14.9ZM16.48,9.73c-.23-2.45,.54-4.26,3-5.07,0-.35,0-.68,0-1.02,0-1.28-.56-1.83-1.85-1.83-4.07,0-8.13,0-12.2,0-.18,0-.36,0-.56,0v2.46c2.72,.47,4.53,1.94,5.39,4.53,.31,.92,.28,.93,1.24,.93,1.63,0,3.26,0,4.98,0Zm8.98-2.31v4.09h2.14v-2.42h1.82v2.41h2.14V7.42h-6.09Zm-9.02,4.18h-5.86v1.73h5.86v-1.73ZM2.98,4.23V1.85H1.85v2.38h1.13Z"/>
    </g>
  </g>
</svg>