<?xml version="1.0" encoding="UTF-8"?>
<svg id="_Слой_2" data-name="Слой 2" xmlns="http://www.w3.org/2000/svg" viewBox="0 0 47.06 51.14">
  <defs>
    <style>
      .cls-1 {
        fill: #fff;
      }
    </style>
  </defs>
  <g id="_Слой_1-2" data-name="Слой 1">
    <g id="OIpa69.tif">
      <g>
        <path class="cls-1" d="M47.06,27.37c-.12,1.44-.98,2.5-1.81,3.59-2.48,3.24-4.93,6.5-7.42,9.72-.39,.5-.38,1-.31,1.6,.34,0,.67,0,.99,0,.6,.01,.89,.3,.89,.88,0,2.37,0,4.74,0,7.11,0,.56-.3,.87-.86,.87-4.3,0-8.61,0-12.91,0-.56,0-.87-.3-.87-.86,0-2.38,0-4.77,0-7.15,0-.53,.31-.82,.85-.84,.34-.01,.68,0,1.08,0v-.58c0-2.83,.02-5.67,0-8.5-.01-1.35,.45-2.47,1.41-3.42,2.46-2.44,4.92-4.87,7.34-7.35,.87-.9,1.81-1.51,3.16-1.42,0-.21,0-.39,0-.56,0-2.8,0-5.61,0-8.41,0-1.54,1.33-2.92,2.89-3.02,1.74-.11,3.22,1.01,3.44,2.61,.68,4.93,1.36,9.85,2.04,14.78,.03,.23,.07,.47,.11,.7v.27Zm-11.17,14.88c0-.22,.02-.41,0-.58-.1-.73,.17-1.3,.62-1.88,2.76-3.59,5.49-7.2,8.24-10.8,.45-.6,.76-1.24,.66-1.99-.19-1.59-.43-3.18-.65-4.77-.46-3.38-.93-6.77-1.39-10.15-.12-.91-.79-1.52-1.66-1.48-.92,.04-1.55,.85-1.54,1.66,.04,2.97,.02,5.94,0,8.91,0,.31,.08,.52,.32,.73,1.33,1.18,1.5,3.11,.42,4.54-1.03,1.36-2.07,2.72-3.1,4.08-.17,.23-.31,.51-.54,.66-.22,.15-.58,.26-.8,.19-.23-.08-.47-.39-.52-.64-.05-.21,.11-.52,.26-.72,1.13-1.51,2.28-3.01,3.42-4.52,.6-.79,.5-1.79-.22-2.42-.73-.63-1.73-.59-2.43,.1-2.6,2.6-5.19,5.2-7.8,7.79-.62,.62-.92,1.34-.92,2.21,0,2.86,0,5.73,0,8.59v.51h7.61Zm-9.5,7.26h11.4v-5.62h-11.4v5.62Z"/>
        <path class="cls-1" d="M8.38,20.95c.37,.04,.7,.06,1.02,.12,.62,.12,1.15,.38,1.61,.84,2.62,2.63,5.25,5.27,7.89,7.89,.94,.93,1.39,2.02,1.39,3.34-.02,2.86,0,5.73-.01,8.59,0,.42,.09,.57,.54,.56,1.29-.03,1.41,.11,1.41,1.41,0,2.13,0,4.26,0,6.39,0,.79-.26,1.05-1.05,1.05-4.18,0-8.37,0-12.55,0-.8,0-1.05-.25-1.05-1.04,0-2.26,0-4.53,0-6.79,0-.77,.26-1.02,1.02-1.03,.28,0,.56,0,.86,0,.08-.6,.08-1.09-.3-1.59-2.63-3.41-5.18-6.87-7.84-10.25C.14,28.98-.19,27.47,.09,25.66c.63-4.1,1.15-8.22,1.71-12.33,.1-.71,.14-1.44,.33-2.13,.62-2.13,3.36-2.92,5.09-1.48,.75,.63,1.16,1.42,1.15,2.43-.02,2.77,0,5.55,0,8.32v.48Zm10.28,21.3c.02-.1,.03-.15,.03-.19,0-3.04,0-6.09,0-9.13,0-.75-.31-1.39-.85-1.92-2.65-2.63-5.28-5.28-7.93-7.91-.16-.16-.38-.31-.59-.39-.75-.27-1.57,0-2.03,.64-.48,.67-.46,1.45,.05,2.12,1.14,1.5,2.29,3,3.42,4.52,.16,.21,.31,.55,.25,.76-.07,.25-.34,.53-.59,.63-.35,.15-.65-.08-.88-.38-1.15-1.52-2.3-3.03-3.45-4.55-1.13-1.49-.94-3.4,.45-4.65,.13-.12,.25-.34,.25-.52,.02-3.06,.01-6.12,0-9.18,0-.82-.64-1.46-1.48-1.52-.85-.06-1.58,.52-1.69,1.34-.66,4.79-1.3,9.59-1.98,14.38-.16,1.1,.07,2,.76,2.88,2.81,3.64,5.58,7.32,8.37,10.98,.23,.3,.36,.61,.33,.99-.02,.35,0,.71,0,1.08h7.57Zm-9.47,7.26h11.4v-5.61H9.18v5.61Z"/>
        <path class="cls-1" d="M23.49,0c7.07,0,12.78,5.72,12.78,12.78,0,7.06-5.74,12.79-12.79,12.79-7.06,0-12.78-5.73-12.77-12.79C10.7,5.71,16.42,0,23.49,0Zm-.02,1.6c-6.2,.02-11.17,5.01-11.16,11.2,.01,6.2,5.03,11.18,11.24,11.16,6.15-.02,11.13-5.04,11.11-11.2-.02-6.19-5.02-11.18-11.2-11.16Z"/>
        <path class="cls-1" d="M30.2,11.67c.41-.83,.53-1.76,.38-2.84-.11-.84-.44-1.57-.96-2.18-.88-1.02-2.07-1.55-3.52-1.56-1.44-.02-2.88-.01-4.32,0h-1.86s-.04,0-.06,0c0,.01,0,.03,0,.05v7c0,.23-.19,.41-.41,.41h-2.4s-.07,0-.09,0c0,.02,0,.04,0,.08v1.4s0,.08,0,.1c.02,0,.05,0,.09,0h2.37c.23,0,.41,.19,.41,.41v1.34c0,.23-.19,.41-.41,.41h-2.48c0,.43,.01,.88,.01,1.32,0,0,0,.01,0,.02h2.24s.25,0,.25,0c.23,0,.41,.19,.41,.41v2.11c.6,0,1.19,0,1.78,0l.02-2.12c0-.23,.19-.41,.41-.41h5.58s.06,0,.08,0c0-.02,0-.05,0-.09v-1.2s0-.04,0-.05c-.02,0-.04,0-.06,0h-5.59c-.23,0-.41-.19-.41-.41v-1.34c0-.23,.19-.41,.41-.41h1.3c.86,0,1.71,0,2.57,0,.51,0,.94-.06,1.32-.15,1.35-.32,2.34-1.1,2.93-2.31Zm-2.09-.13c-.54,.63-1.25,.98-2.05,1-.55,.02-1.09,.02-1.64,.02-.39,0-.77,0-1.16,0h-1.17c-.23,0-.41-.19-.41-.42V7.11c0-.23,.19-.41,.41-.41,.42,0,.84,0,1.25-.01,.95-.01,1.92-.03,2.89,.03,1.39,.08,2.43,1.17,2.54,2.63,.06,.87-.16,1.6-.66,2.19Z"/>
      </g>
    </g>
  </g>
</svg>