<?xml version="1.0" encoding="UTF-8"?>
<svg id="_Слой_2" data-name="Слой 2" xmlns="http://www.w3.org/2000/svg" viewBox="0 0 51.87 47.71">
  <defs>
    <style>
      .cls-1 {
        fill: #fff;
      }
    </style>
  </defs>
  <g id="_Слой_1-2" data-name="Слой 1">
    <g id="aCn6ax.tif">
      <path class="cls-1" d="M42.7,35.76c2.07-.99,2.68-2.36,2.65-3.81-.08-3.56-.02-7.11-.02-10.67,0-9.62-7.15-17.84-16.67-19.17C18.12,.63,8.39,7.87,6.78,18.41c-.15,.99-.21,1.99-.22,2.99-.02,3.7,0,7.4-.01,11.1,0,1.04-.29,1.32-1.35,1.32-.57,0-1.14,0-1.72,0-1.94-.02-3.43-1.42-3.46-3.36-.04-2.29-.04-4.58,0-6.86,.03-1.92,1.48-3.3,3.41-3.35,.39-.01,.78,0,1.2,0,.49-6.57,3.24-11.91,8.42-15.91C16.86,1.41,21.21-.03,26.02,0c5.64,.04,10.55,2.01,14.63,5.91,4.06,3.88,6.2,8.69,6.58,14.34,.41,0,.78,0,1.15,0,2.01,.04,3.45,1.45,3.47,3.46,.02,2.22,.02,4.43,0,6.65-.02,2.03-1.49,3.49-3.52,3.44-.84-.02-1.34,.12-1.74,.99-.62,1.35-1.82,2.23-3.16,2.77-1.38,.56-2.26,1.49-3.13,2.68-3.94,5.4-9.34,7.91-16,7.39-8.07-.63-14.74-7.06-15.86-15.1-.12-.86-.18-1.74-.19-2.62-.03-2.9-.11-5.79-.02-8.69,.28-8.35,6.72-15.48,14.99-16.7,9.56-1.41,18.29,4.77,20.14,14.28,.22,1.11,.28,2.27,.29,3.41,.03,2.47-.03,4.93-.03,7.4,0,1.96-.24,3.88-.84,5.75-.04,.11-.06,.23-.09,.37Zm-10.91,2.59c2.74-.27,5.42-.63,8.03-1.41,.18-.05,.37-.23,.45-.4,.72-1.55,1.24-3.18,1.31-4.88,.1-2.3,.07-4.61,.12-6.91,0-.42-.12-.57-.52-.69-3.49-1.03-6.79-2.5-9.92-4.36-.26-.15-.6-.24-.9-.23-3.5,.05-6.87,.8-10.14,1.99-2.25,.82-4.48,1.68-6.75,2.42-1.04,.34-2.15,.45-3.3,.68,0,1.8-.02,3.65,.01,5.51,.02,.89,.05,1.8,.23,2.66,1.36,6.5,5.2,10.88,11.64,12.53,6.46,1.66,11.93-.38,16.24-5.48,.11-.13,.2-.28,.33-.46-.14,0-.21,0-.28,0-1.99,.3-3.98,.63-5.98,.9-.41,.06-.6,.19-.76,.57-.59,1.36-2.09,2.15-3.5,1.92-1.58-.26-2.7-1.45-2.85-3.04-.14-1.47,.75-2.89,2.16-3.41,1.33-.5,3.43-.21,4.38,2.1ZM10.1,22.54c.67-.09,1.23-.09,1.75-.25,1.94-.61,3.89-1.2,5.78-1.94,4.24-1.65,8.58-2.84,13.17-2.82,.38,0,.82,.12,1.15,.32,2.87,1.73,5.9,3.12,9.09,4.14,.21,.07,.43,.11,.75,.2-.19-5.75-2.46-10.33-7.27-13.37-5.58-3.52-11.39-3.57-17-.09-5,3.1-7.32,7.82-7.41,13.81Zm-5.51-.36c-.42,0-.8-.02-1.17,0-.87,.04-1.46,.59-1.46,1.46-.02,2.27-.02,4.54,0,6.8,0,.76,.51,1.32,1.22,1.41,.45,.06,.92,.01,1.4,.01v-9.69Zm42.68,9.71c.42,0,.78,0,1.13,0,.87-.03,1.49-.57,1.5-1.42,.03-2.29,.02-4.57,0-6.86,0-.7-.45-1.25-1.08-1.36-.5-.09-1.02-.06-1.55-.09v9.73Zm-18.69,8.91c.76,0,1.4-.64,1.42-1.39,.02-.78-.63-1.43-1.42-1.43-.8,0-1.43,.64-1.41,1.44,.02,.76,.65,1.39,1.42,1.39Z"/>
    </g>
  </g>
</svg>