<?xml version="1.0" encoding="UTF-8"?>
<svg id="_Слой_2" data-name="Слой 2" xmlns="http://www.w3.org/2000/svg" viewBox="0 0 44 48.88">
  <defs>
    <style>
      .cls-1 {
        fill: #fff;
      }
    </style>
  </defs>
  <g id="_Слой_1-2" data-name="Слой 1">
    <g id="oQTMsi.tif">
      <g>
        <path class="cls-1" d="M29.77,34.62c.85,.12,1.7,.23,2.55,.37,2.74,.45,5.43,1.05,7.95,2.26,1.09,.52,2.12,1.15,2.89,2.11,1.13,1.41,1.11,3.04-.07,4.41-1.07,1.25-2.51,1.95-4,2.55-2.4,.96-4.92,1.49-7.46,1.87-4.49,.67-9.01,.84-13.55,.58-4.22-.25-8.4-.77-12.42-2.15-1.3-.45-2.55-.99-3.65-1.82-.43-.32-.83-.69-1.18-1.09-1.1-1.3-1.12-2.9-.08-4.25,.74-.95,1.72-1.58,2.78-2.11,2.37-1.18,4.92-1.78,7.5-2.24,.96-.17,1.93-.28,2.9-.42,.09-.01,.18-.04,.32-.08-.11-.18-.2-.33-.3-.48-2.83-4.54-4.97-9.36-6.09-14.61-.64-3-.82-5.99,.04-8.99C9.55,4.86,14.7,.58,20.53,.06c7.54-.67,14.08,4.07,15.79,11.45,.54,2.31,.41,4.63,0,6.94-1.01,5.65-3.27,10.81-6.28,15.67-.08,.12-.16,.25-.23,.37-.01,.03-.01,.06-.03,.13Zm4.52-19.83c-.11-.87-.15-1.75-.33-2.61-1.4-6.55-7.44-10.65-14.08-9.57-5.24,.85-9.49,5.37-10.02,10.64-.23,2.27,.05,4.49,.58,6.68,1.43,5.93,4.15,11.24,7.91,16.02,.78,.99,1.72,1.86,2.67,2.69,.73,.64,1.2,.61,1.97,0,.72-.58,1.41-1.21,2.01-1.91,3.02-3.52,5.26-7.5,6.98-11.79,1.3-3.26,2.17-6.61,2.31-10.15Zm-12.46,31.64c4.26-.02,8.32-.3,12.31-1.19,1.85-.41,3.66-.93,5.34-1.84,.51-.28,1-.61,1.43-1,.66-.6,.65-1.13,.02-1.75-.23-.23-.48-.45-.76-.6-.7-.38-1.4-.77-2.14-1.06-3.09-1.2-6.34-1.7-9.62-2.03-.17-.02-.42,.14-.54,.29-1.04,1.22-2.1,2.41-3.42,3.33-1.81,1.26-3.07,1.26-4.88,0-.2-.14-.41-.27-.58-.44-.93-.95-1.86-1.91-2.77-2.89-.21-.23-.4-.34-.71-.29-1.83,.29-3.67,.53-5.49,.87-1.89,.36-3.73,.91-5.44,1.82-.5,.27-.98,.59-1.4,.96-.7,.62-.71,1.2-.01,1.82,.46,.41,.97,.8,1.53,1.03,1.32,.55,2.65,1.1,4.02,1.47,4.36,1.18,8.82,1.46,13.13,1.49Z"/>
        <path class="cls-1" d="M29.33,14.65c0,4.04-3.29,7.33-7.33,7.33-4.05,0-7.33-3.29-7.33-7.34,0-4.05,3.29-7.33,7.33-7.33,4.04,0,7.33,3.29,7.33,7.33Zm-12.22-.03c0,2.7,2.17,4.9,4.85,4.91,2.7,.01,4.91-2.16,4.93-4.84,.02-2.72-2.17-4.93-4.88-4.94-2.7,0-4.89,2.18-4.9,4.86Z"/>
      </g>
    </g>
  </g>
</svg>