<?xml version="1.0" encoding="UTF-8"?>
<svg id="_Слой_2" data-name="Слой 2" xmlns="http://www.w3.org/2000/svg" viewBox="0 0 35.8 35.81">
  <defs>
    <style>
      .cls-1 {
        fill: #fff;
      }
    </style>
  </defs>
  <g id="_Слой_1-2" data-name="Слой 1">
    <g>
      <path class="cls-1" d="M22.46,13.14c-.08,.05-.16,.09-.24,.14-2.03,1.25-4.07,2.49-6.1,3.74-1.16,.71-2.31,1.44-3.46,2.17-.25,.16-.37,.39-.37,.69,0,.06,0,.13,.02,.19,.12,.47,.22,.93,.35,1.4,.23,.81,.48,1.62,.73,2.43,.04,.13,.09,.16,.2,.15,.12,0,.19-.06,.22-.18,.03-.14,.06-.29,.08-.44,.08-.54,.16-1.08,.24-1.61,.06-.38,.21-.71,.51-.96,.08-.07,.16-.16,.24-.23,1.92-1.8,3.85-3.59,5.77-5.39,.66-.62,1.31-1.25,1.97-1.88,.06-.05,.07-.1,.02-.17-.05-.06-.1-.09-.18-.04Z"/>
      <path class="cls-1" d="M35.75,16.35c-.05-.78-.19-1.54-.36-2.3-.65-2.91-1.93-5.51-3.87-7.78-2.35-2.73-5.25-4.6-8.71-5.59-.98-.28-1.98-.49-3-.59-.45-.04-.91-.05-1.36-.07-1.17-.06-2.33,.02-3.49,.21-1.89,.32-3.68,.93-5.37,1.81C3.66,5.12,.07,11.3,0,17.48c-.02,1.43,.08,2.85,.39,4.25,.65,2.9,1.91,5.5,3.85,7.75,3.33,3.87,7.56,5.96,12.65,6.29,1.01,.07,2.02,.05,3.02-.07,1.24-.15,2.46-.42,3.65-.82,3.31-1.11,6.07-3.04,8.27-5.75,1.73-2.13,2.88-4.54,3.5-7.21,.19-.8,.33-1.6,.39-2.42,.04-.53,.04-1.07,.06-1.57-.02-.56-.02-1.08-.05-1.6Zm-8.48-6.45c-.37,1.85-.74,3.71-1.12,5.56-.4,1.97-.81,3.93-1.22,5.9-.43,2.05-.87,4.1-1.31,6.15-.07,.31-.24,.46-.57,.49-.08-.03-.18-.06-.25-.11-.29-.19-.57-.38-.85-.58-1.24-.89-2.47-1.78-3.7-2.67-.21-.15-.44-.29-.66-.43-.27-.16-.54-.14-.78,.05-.5,.39-.99,.79-1.49,1.19-.45,.36-.89,.72-1.34,1.07-.34,.27-.79,.13-.92-.28-.43-1.35-.85-2.7-1.28-4.05-.21-.65-.42-1.3-.62-1.96-.03-.09-.08-.14-.17-.18-1.1-.41-2.2-.83-3.3-1.25-.52-.2-1.04-.4-1.56-.61-.21-.08-.35-.3-.35-.52,0-.19,.16-.43,.35-.5,1.71-.67,3.41-1.34,5.12-2,4.96-1.91,9.93-3.82,14.9-5.73,.14-.05,.28-.09,.41-.16,.14-.06,.26-.04,.39,.02,.24,.11,.36,.33,.31,.59Z"/>
    </g>
  </g>
</svg>