<?xml version="1.0" encoding="UTF-8"?>
<svg id="_Слой_2" data-name="Слой 2" xmlns="http://www.w3.org/2000/svg" viewBox="0 0 35.8 36.88">
  <defs>
    <style>
      .cls-1 {
        fill: #fff;
      }
    </style>
  </defs>
  <g id="_Слой_1-2" data-name="Слой 1">
    <g>
      <path class="cls-1" d="M35.78,17.71c-.11-2.84-.81-5.53-2.14-8.04-1.73-3.28-4.22-5.82-7.49-7.59-1.56-.85-3.22-1.43-4.96-1.77-.81-.16-1.62-.25-2.44-.29-.02,0-.05,.01-.07-.02h-1.51c-.11,.04-.22,.02-.34,.03-1.42,.09-2.81,.34-4.17,.77-1.67,.53-3.23,1.29-4.68,2.28-2.19,1.51-3.96,3.4-5.33,5.68-1.12,1.87-1.89,3.88-2.31,6.01C.07,16.25-.05,17.73,.02,19.22c.13,2.97,.9,5.76,2.34,8.36,1.28,2.31,2.98,4.25,5.1,5.83,1.52,1.13,3.19,2,4.99,2.59,1.1,.36,2.22,.61,3.37,.75,1.07,.13,2.15,.16,3.22,.09,2.25-.15,4.39-.7,6.42-1.68,3.1-1.5,5.57-3.72,7.42-6.62,1.18-1.84,2-3.84,2.47-5.97,.36-1.6,.5-3.22,.44-4.85Zm-6.63,2.81c-.11,1.37-.35,2.48-.74,3.5-.75,1.96-2.14,3.32-4.15,4.04-.73,.26-1.53,.45-2.46,.59-1.28,.19-2.59,.23-3.83,.25-.54,.01-1.08,.02-1.62,.03-.44,.51-.96,1.11-1.53,1.67-.34,.33-.74,.71-1.22,1-.17,.1-.32,.17-.47,.2-.08,.02-.15,.03-.23,.03-.32,0-.62-.18-.77-.48-.14-.27-.18-.56-.2-.8-.03-.33-.03-.65-.03-.96,0-.13,0-.27,0-.4,0-.3,0-.6,0-.89-1.11-.4-2.05-1.03-2.82-1.87-.69-.75-1.22-1.65-1.62-2.74-.33-.89-.56-1.86-.71-2.97-.17-1.33-.22-2.74-.13-4.33,.07-1.26,.25-2.37,.54-3.37,.35-1.18,.84-2.14,1.5-2.95,.7-.86,1.62-1.52,2.73-1.98,.75-.31,1.59-.52,2.58-.65,1-.13,2.01-.16,2.99-.19h.1c.71-.02,1.37-.02,2,0,1.85,.07,3.35,.32,4.71,.78,1,.34,1.74,.7,2.37,1.16,.99,.71,1.72,1.66,2.23,2.9,.31,.75,.53,1.59,.67,2.56,.16,1.15,.18,2.28,.18,3.33,0,.95-.01,1.74-.08,2.54Z"/>
      <path class="cls-1" d="M26.85,15.1c-.1-.81-.27-1.49-.52-2.1-.31-.77-.74-1.36-1.3-1.82-.48-.39-1.04-.64-1.52-.83-1.16-.45-2.45-.71-4.08-.8-.42-.02-.85-.04-1.33-.04-.32,0-.65,0-1.01,.02h-.13c-.81,.03-1.66,.05-2.47,.15-.88,.1-1.58,.27-2.21,.52-.91,.36-1.6,.89-2.11,1.63-.38,.54-.67,1.17-.88,1.92-.23,.82-.37,1.73-.42,2.79-.08,1.65-.03,2.99,.16,4.22,.14,.94,.36,1.75,.67,2.46,.34,.78,.76,1.4,1.29,1.9,.57,.54,1.27,.93,2.08,1.16,.24,.07,.36,.22,.36,.47,0,.83,0,1.67,0,2.5v.6c.11-.1,.22-.21,.34-.33,.88-.9,1.68-1.86,2.36-2.69,.1-.12,.22-.18,.38-.18,.3,0,.61-.01,.91-.02h.36c1.43-.04,2.71-.08,3.98-.28,.84-.13,1.51-.32,2.13-.58,.98-.42,1.69-1.04,2.17-1.9,.36-.64,.59-1.37,.75-2.31,.12-.74,.19-1.56,.21-2.57,.02-1.32,.03-2.61-.13-3.9Zm-8.72-2.73s.06,0,.09,0c1.01,0,1.94,.27,2.77,.81,1.4,.91,2.29,2.2,2.62,3.83,.07,.32,.1,.66,.09,1h0c0,.06,0,.11,0,.16,0,.09,.01,.19,0,.29-.03,.21-.15,.31-.35,.32,0,0-.01,0-.02,0-.21,0-.33-.1-.37-.29-.02-.1-.02-.2-.03-.3,0-.07,0-.14-.01-.2-.12-.91-.31-1.62-.6-2.24-.47-1.01-1.27-1.74-2.36-2.16-.62-.24-1.25-.39-1.87-.44-.01,0-.03,0-.04,0-.17-.03-.37-.1-.35-.37,.02-.26,.16-.4,.42-.4Zm2.72,3.38c-.28-.37-.67-.64-1.22-.84-.38-.14-.74-.23-1.09-.28-.04,0-.08-.01-.11-.02-.21-.06-.3-.21-.27-.43,.05-.33,.27-.37,.39-.36,.48,.03,.86,.11,1.2,.24,1.24,.49,2.05,1.36,2.41,2.61,.08,.28,.12,.59,.11,.92v.09c0,.06,0,.13,0,.19,0,.23-.12,.35-.35,.37-.02,0-.04,0-.05,0-.2,0-.32-.1-.34-.31l-.02-.14c-.03-.23-.06-.47-.11-.7-.1-.42-.24-.9-.55-1.32Zm.05,1.45v.03c0,.09,0,.18-.03,.28-.05,.17-.17,.26-.33,.28-.01,0-.02,0-.03,0-.15,0-.27-.09-.33-.23-.04-.08-.05-.16-.05-.24,0-.04,0-.07-.02-.11-.13-.65-.46-.98-1.12-1.1-.05,0-.09-.02-.14-.03-.18-.05-.28-.16-.28-.32,0-.2,.11-.36,.28-.41,.18-.05,.37-.05,.59,0,.78,.21,1.48,1.09,1.46,1.85Zm3.06,5.76c-.38,1.05-1.12,1.73-2.19,2.03-.11,.03-.21,.04-.31,.04-.26,0-.51-.09-.74-.18-.78-.33-1.57-.75-2.36-1.24-1.52-.96-2.85-2.14-3.94-3.5-.96-1.2-1.76-2.58-2.38-4.1-.18-.43-.29-.85-.29-1.46h0c.02-.78,.5-1.47,1.32-1.92,.23-.13,.52-.26,.85-.29,.33-.03,.63,.05,.88,.25,.29,.23,.52,.5,.71,.74,.53,.66,.9,1.23,1.16,1.82,.1,.22,.22,.55,.1,.92-.07,.24-.21,.45-.43,.63-.07,.06-.15,.12-.23,.18l-.08,.06c-.32,.24-.41,.51-.3,.89,.11,.38,.31,.77,.62,1.21,.55,.79,1.3,1.39,2.27,1.83,.36,.16,.58,.09,.81-.24,.07-.1,.17-.24,.29-.36,.43-.44,.96-.55,1.53-.33,.19,.07,.37,.17,.58,.32,.59,.41,1.11,.81,1.6,1.22,.09,.08,.18,.16,.26,.25,.33,.37,.42,.82,.26,1.26Z"/>
    </g>
  </g>
</svg>