<?xml version="1.0" encoding="UTF-8"?>
<svg id="_Слой_2" data-name="Слой 2" xmlns="http://www.w3.org/2000/svg" viewBox="0 0 35.8 35.8">
  <defs>
    <style>
      .cls-1 {
        fill: #fff;
      }
    </style>
  </defs>
  <g id="_Слой_1-2" data-name="Слой 1">
    <g>
      <path class="cls-1" d="M17.9,0C8.01,0,0,8.01,0,17.9s8.01,17.9,17.9,17.9,17.9-8.01,17.9-17.9S27.78,0,17.9,0Zm-4.96,27.76l-6.02,1.58,1.61-5.88C1.93,12.21,17.26,.45,26.4,9.76c9.19,9.02-2.21,24.26-13.46,18Z"/>
      <path class="cls-1" d="M25.04,11.11c-7.95-8.02-20.88,2.77-14.45,12.04l-.95,3.48,3.57-.94c9.31,6.1,19.74-6.76,11.83-14.59Zm-.58,9.89c-.23,.99-.82,1.68-1.76,2.06-.09,.04-.18,.06-.28,.07-.24,.03-.47-.02-.69-.09-.74-.21-1.5-.51-2.26-.87-1.48-.7-2.8-1.62-3.93-2.73-.99-.98-1.86-2.14-2.58-3.45-.21-.37-.36-.73-.42-1.29h0c-.07-.7,.29-1.38,.99-1.87,.2-.14,.44-.29,.73-.35,.3-.07,.57-.02,.82,.13,.28,.18,.52,.4,.72,.59,.55,.54,.94,1.02,1.24,1.51,.11,.18,.25,.47,.19,.82-.04,.22-.14,.42-.32,.61-.06,.06-.12,.13-.19,.19l-.06,.06c-.27,.26-.32,.51-.18,.84,.14,.33,.36,.66,.69,1.02,.58,.66,1.32,1.11,2.25,1.4,.34,.1,.53,.02,.7-.31,.05-.1,.12-.23,.22-.36,.34-.44,.8-.6,1.34-.47,.18,.05,.36,.12,.56,.22,.57,.31,1.09,.61,1.57,.93,.09,.06,.18,.13,.27,.2,.34,.3,.47,.69,.37,1.11Z"/>
    </g>
  </g>
</svg>