<?xml version="1.0" encoding="UTF-8"?>
<svg id="_Слой_2" data-name="Слой 2" xmlns="http://www.w3.org/2000/svg" viewBox="0 0 88 76.64">
  <defs>
    <style>
      .cls-1 {
        fill: #fff;
      }
    </style>
  </defs>
  <g id="_Слой_1-2" data-name="Слой 1">
    <g id="lpKifq.tif">
      <g>
        <path class="cls-1" d="M88,46.54c-.14,1.21-.26,2.42-.44,3.63-1.45,10.19-5.96,18.81-13.36,25.93-.34,.33-.96,.51-1.45,.52-2.49,.05-4.98,.02-7.48,.02-16.52,0-33.04,0-49.55,.01-.87,0-1.52-.27-2.14-.87C6.43,68.82,1.98,60.44,.49,50.56-2.29,32.18,6.92,13.95,23.34,5.19,31.19,1.01,39.56-.64,48.4,.22c19.37,1.88,35.48,16.81,38.88,35.98,.27,1.54,.4,3.1,.59,4.65,.03,.24,.08,.47,.13,.7v4.99Zm-44,26.43c9.04,0,18.08,0,27.12,.02,.7,0,1.18-.21,1.64-.71,10.08-10.81,13.73-23.45,10.36-37.86C78.25,13.51,56.93,.09,35.93,4.48,15.46,8.76,1.64,27.78,3.95,48.57c1.03,9.27,4.96,17.17,11.43,23.85,.39,.4,.79,.55,1.34,.55,9.09-.02,18.18-.01,27.27-.01Z"/>
        <path class="cls-1" d="M39.2,56.98c-.13-.24-.26-.5-.4-.76-3.78-6.92-7.56-13.84-11.34-20.75-.33-.61-.52-1.21-.24-1.88,.59-1.4,2.37-1.62,3.27-.4,.3,.41,.52,.88,.77,1.33,3.66,6.59,7.32,13.19,10.98,19.79,.15,.28,.31,.55,.45,.81,3.55-.51,6.56,1.38,7.7,4.8,1.12,3.34-.2,6.85-3.2,8.52-2.91,1.61-6.56,.92-8.71-1.61-1.94-2.28-2.63-6.54,.72-9.84Zm8.09,5.21c.02-1.82-1.43-3.32-3.2-3.33-1.88-.01-3.35,1.39-3.37,3.23-.03,1.85,1.41,3.34,3.24,3.36,1.85,.02,3.32-1.42,3.33-3.27Z"/>
        <path class="cls-1" d="M58.84,21.08c-1.4-.02-2.31-1.4-1.72-2.55,.61-1.19,1.3-2.34,2.04-3.46,.6-.92,1.7-1.08,2.64-.48,.79,.5,1.04,1.54,.53,2.45-.57,1.02-1.16,2.03-1.77,3.02-.41,.67-1.04,1-1.72,1.01Z"/>
        <path class="cls-1" d="M72.58,63.62c-1.4-.71-3.16-1.36-4.38-2.81-.51-.61-.31-1.46,.24-2.09,.55-.62,1.42-.88,2.12-.5,1.2,.65,2.38,1.34,3.53,2.08,.71,.46,.94,1.33,.69,2.07-.24,.7-1.07,1.25-2.2,1.25Z"/>
        <path class="cls-1" d="M17.83,31.89c-.06,0-.21,.03-.3-.02-1.41-.85-2.88-1.62-4.19-2.6-.67-.5-.51-1.51,.05-2.2,.55-.68,1.43-.97,2.16-.59,1.2,.64,2.38,1.34,3.53,2.08,.72,.46,.96,1.32,.71,2.07-.23,.71-1.05,1.25-1.96,1.26Z"/>
        <path class="cls-1" d="M13.05,62.01c-.02-.72,.26-1.29,.87-1.67,1.04-.63,2.09-1.26,3.15-1.85,.87-.48,1.94-.25,2.42,.49,.54,.83,.41,2.11-.4,2.65-1.11,.74-2.26,1.45-3.46,2.04-1.22,.6-2.57-.32-2.58-1.65Z"/>
        <path class="cls-1" d="M28.74,20.89c-.46-.02-1.06-.34-1.46-.99-.59-.95-1.16-1.91-1.7-2.89-.52-.94-.22-2.2,.6-2.66,.9-.51,2.08-.18,2.66,.78,.58,.96,1.16,1.91,1.7,2.9,.74,1.36-.07,2.88-1.79,2.87Z"/>
        <path class="cls-1" d="M74.96,28.24c0,.72-.3,1.28-.91,1.64-1,.6-2,1.21-3.02,1.78-.89,.5-2.1,.19-2.59-.61-.5-.83-.23-2.03,.63-2.58,1.01-.64,2.03-1.26,3.08-1.82,1.36-.72,2.82,.13,2.81,1.59Z"/>
        <path class="cls-1" d="M45.82,13.27c0,.66,.04,1.32,0,1.97-.08,1.02-.79,1.64-1.79,1.64-1.01,0-1.76-.61-1.81-1.62-.06-1.31-.06-2.63,0-3.94,.05-1.01,.79-1.6,1.82-1.59,.99,.01,1.68,.59,1.77,1.57,.06,.65,.01,1.31,.01,1.97h0Z"/>
        <path class="cls-1" d="M75.85,43.29c.59,0,1.17-.02,1.76,0,1.02,.04,1.74,.78,1.77,1.77,.02,1.05-.58,1.81-1.64,1.86-1.29,.06-2.59,.07-3.87,0-1.05-.06-1.65-.85-1.61-1.9,.04-1.04,.7-1.7,1.78-1.73,.61-.02,1.22,0,1.83,0Z"/>
        <path class="cls-1" d="M12.24,43.29c.61,0,1.22-.02,1.83,0,.95,.04,1.56,.61,1.68,1.51,.12,.95-.38,1.94-1.27,2.01-1.54,.13-3.11,.12-4.65-.01-.86-.07-1.28-.99-1.16-2,.09-.83,.69-1.44,1.54-1.5,.68-.04,1.36,0,2.05,0,0,0,0,0,0,0Z"/>
      </g>
    </g>
  </g>
</svg>