<?xml version="1.0" encoding="UTF-8"?>
<svg id="_Слой_2" data-name="Слой 2" xmlns="http://www.w3.org/2000/svg" viewBox="0 0 117.14 117.15">
  <defs>
    <style>
      .cls-1, .cls-2 {
        fill: #fff;
      }

      .cls-2 {
        stroke: #fff;
        stroke-linecap: round;
        stroke-linejoin: round;
        stroke-width: .75px;
      }
    </style>
  </defs>
  <g id="_Слой_1-2" data-name="Слой 1">
    <g>
      <g id="gfzfGT.tif">
        <path class="cls-1" d="M59.36,0c2.45,.24,4.91,.4,7.35,.72,7.2,.94,13.97,3.25,20.32,6.77,.22,.12,.45,.22,.96,.47-.63-1.24-1.15-2.21-1.63-3.19-.6-1.23-.34-2.3,.65-2.81,1.01-.51,2.06-.12,2.68,1.08,1.62,3.15,3.24,6.31,4.82,9.49,.86,1.73,.02,3.11-1.87,3.04-3.51-.13-7.01-.32-10.51-.52-1.22-.07-2.01-.93-1.93-2,.08-1.09,.91-1.72,2.19-1.69,1.1,.02,2.21,0,3.55,0-.53-.32-.87-.55-1.23-.74C53.45-6.42,14.07,10.9,5.53,45.44c-7.66,30.97,12.23,61.66,43.63,67.31,29.22,5.27,57.81-14.39,63.28-43.48,2.06-10.94,.97-21.54-3.31-31.81-.62-1.48-.44-2.39,.57-2.95,1.09-.61,2.18-.15,2.78,1.22,2.23,5.16,3.71,10.54,4.29,16.12,1.73,16.62-2.55,31.56-13.31,44.38-10.52,12.55-24.12,19.56-40.47,20.75-29.69,2.17-55.62-17.54-61.77-46.72C-5.28,39.47,14.93,8.22,45.73,1.61c3.75-.8,7.63-.98,11.45-1.46,.3-.04,.59-.1,.89-.15,.43,0,.87,0,1.3,0Z"/>
      </g>
      <g id="_0MMAA3.tif" data-name="0MMAA3.tif">
        <g>
          <path class="cls-2" d="M89.44,48c.69-.78,1.26-1.52,1.94-2.15,.32-.3,.85-.52,1.29-.54,1.81-.06,3.63-.04,5.44-.02,2.26,.02,4.02,1.74,4.03,3.93,.01,2.22-1.76,3.96-4.06,3.98-.93,0-1.87-.03-2.8,.02-.27,.01-.62,.2-.76,.42-.74,1.15-1.44,2.34-2.13,3.52-.12,.2-.18,.46-.18,.69,0,5.03,.04,10.05,.04,15.08,0,2.28-1.66,3.95-3.93,4-.63,.01-1.26,0-1.96,0-.01,.3-.04,.57-.04,.83,0,1.92,0,3.85,0,5.77,0,.97-.33,1.31-1.27,1.31-3.76,0-7.53,0-11.29,0-.96,0-1.28-.33-1.29-1.29,0-2.17,0-4.34,0-6.56h-25.72c0,.59,0,1.18,0,1.78,0,1.62,0,3.24,0,4.86,0,.83-.34,1.2-1.12,1.21-3.87,.01-7.75,.01-11.62,0-.77,0-1.1-.38-1.1-1.22,0-2.19,0-4.39,0-6.69-.7,0-1.35,0-1.99,0-2.28-.04-3.94-1.71-3.94-3.99,0-5.03,.03-10.05,.04-15.08,0-.26-.08-.54-.21-.77-.67-1.16-1.36-2.32-2.09-3.45-.14-.22-.49-.42-.76-.43-.96-.05-1.92,0-2.88-.02-2.25-.03-4-1.79-3.99-3.97,.01-2.16,1.74-3.9,3.94-3.93,1.87-.03,3.74-.03,5.6,.02,.39,.01,.87,.2,1.15,.47,.69,.66,1.3,1.4,2.03,2.22,.24-.49,.36-.73,.48-.98,2.94-5.9,6.56-11.29,11.52-15.7,1.48-1.32,3.04-1.93,5.11-1.91,9.01,.11,18.02,.04,27.03,.07,.54,0,1.15,.19,1.59,.48,2.94,1.92,5.22,4.52,7.35,7.27,2.39,3.1,4.43,6.41,6.11,9.94,.09,.19,.21,.38,.45,.82Zm-29.82,6.19c-8.63,0-17.25,0-25.88,0-1.15,0-2.31,.02-3.46,0-.43,0-.65,.11-.72,.57-.19,1.44-.57,2.87-.6,4.31-.08,4.59-.03,9.17-.03,13.76,0,1.41,.71,2.14,2.12,2.14,3.43,0,6.87-.01,10.3,.02,.54,0,.76-.21,.96-.66,.78-1.78,1.62-3.54,2.4-5.33,.29-.67,.69-.96,1.43-.96,8.95,.02,17.91,.02,26.86,0,.73,0,1.17,.25,1.46,.93,.78,1.79,1.63,3.54,2.39,5.33,.24,.55,.54,.7,1.1,.69,3.32-.03,6.65-.01,9.97-.01,1.64,0,2.32-.67,2.32-2.27,0-4.34,.05-8.68-.02-13.02-.03-1.55-.36-3.1-.53-4.65-.08-.68-.41-.85-1.09-.85-9.67,.03-19.34,.02-29.01,.02Zm29.22-2.02c-.12-.34-.21-.63-.31-.9-1.83-4.84-4.43-9.25-7.63-13.3-1.76-2.22-3.64-4.34-5.97-6-.43-.31-1.04-.51-1.57-.51-8.74-.03-17.47,.03-26.21-.06-1.74-.02-3.03,.49-4.26,1.63-5.24,4.87-9.09,10.68-11.83,17.25-.25,.6-.47,1.21-.73,1.89h58.51Zm-13.83,22.77c-.73-1.63-1.39-3.15-2.11-4.66-.08-.16-.45-.26-.69-.26-8.41-.01-16.81,0-25.22-.02-.46,0-.68,.16-.85,.57-.37,.89-.78,1.75-1.17,2.63-.25,.56-.48,1.12-.75,1.74h30.79Zm-40.09,2.01v5.86h9.77v-5.86h-9.77Zm39.56,.03v5.84h9.78v-5.84h-9.78Zm17.23-22.51c.51-.83,1.02-1.61,1.46-2.42,.33-.6,.76-.86,1.45-.84,1.18,.04,2.36,.03,3.54,0,1.17-.03,1.99-.87,1.98-1.98,0-1.11-.83-1.93-2-1.96-.85-.02-1.72,.11-2.55-.03-2.15-.35-3.77,.42-5.02,2.12-.03,.04-.1,.07-.11,.12-.07,.24-.22,.51-.16,.71,.43,1.4,.91,2.79,1.41,4.28Zm-64.24,0c.5-1.49,.97-2.84,1.37-4.2,.07-.24-.02-.65-.19-.83-.59-.65-1.22-1.26-1.88-1.84-.22-.19-.57-.32-.87-.32-1.59-.03-3.18-.03-4.78-.01-1.24,.01-2.08,.81-2.1,1.95-.02,1.17,.84,1.99,2.13,2,1.15,.01,2.31,.02,3.46,0,.62-.02,1.03,.21,1.34,.75,.47,.83,.98,1.63,1.51,2.52Z"/>
          <path class="cls-2" d="M37.39,65.07c-1.4,0-2.8,0-4.2,0-.95,0-1.27-.33-1.28-1.29,0-1.78,0-3.57,0-5.35,0-.97,.31-1.26,1.29-1.26,2.77,0,5.54-.01,8.32,0,2.38,.01,4.22,1.73,4.24,3.92,.02,2.23-1.83,3.97-4.25,3.99-1.37,.01-2.74,0-4.12,0Zm-3.47-1.99c2.69,0,5.29,.03,7.9-.01,1.16-.02,2-.97,1.96-2.03-.04-1.05-.92-1.86-2.1-1.9-.99-.03-1.98,0-2.97,0-1.58,0-3.17,0-4.78,0v3.95Z"/>
          <path class="cls-2" d="M81.68,65.07c-1.34,0-2.69,.01-4.03,0-2.37-.02-4.2-1.76-4.2-3.96,0-2.2,1.83-3.94,4.2-3.95,2.77-.02,5.54,0,8.31,0,1.01,0,1.33,.32,1.33,1.32,0,1.76,0,3.51,0,5.27,0,1-.33,1.32-1.34,1.32-1.43,0-2.85,0-4.28,0Zm3.6-5.92c-2.69,0-5.32-.03-7.95,.02-1.08,.02-1.88,.92-1.9,1.92-.02,1,.76,1.95,1.84,1.97,2.66,.06,5.31,.02,8.01,.02v-3.93Z"/>
        </g>
      </g>
    </g>
  </g>
</svg>