<?xml version="1.0" encoding="UTF-8"?>
<svg id="_Слой_2" data-name="Слой 2" xmlns="http://www.w3.org/2000/svg" viewBox="0 0 90.1 90.02">
  <defs>
    <style>
      .cls-1 {
        fill: #fff;
        stroke: #fff;
        stroke-linecap: round;
        stroke-linejoin: round;
        stroke-width: 1.1px;
      }
    </style>
  </defs>
  <g id="_Слой_1-2" data-name="Слой 1">
    <g id="YwOZZV.tif">
      <path class="cls-1" d="M89.55,11.09c-1.99,2.21-3.97,4.41-5.96,6.62-.71,.79-1.37,1.64-2.15,2.37-.34,.33-.9,.59-1.37,.6-2.84,.05-5.68,.04-8.51,.01-.59,0-.99,.18-1.39,.59-2.22,2.27-4.46,4.51-6.7,6.76,14.73,15.49,12.52,39.85-3.15,53.03-14.35,12.06-36.31,11.04-49.36-2.5-13.51-14.01-13.9-35.67-.95-49.96,13.28-14.64,36.59-16.39,51.97-2.03,.2-.18,.4-.36,.59-.55,2.05-2.05,4.08-4.11,6.15-6.13,.47-.46,.62-.92,.62-1.55-.03-2.78-.04-5.56,.02-8.35,.01-.49,.29-1.1,.65-1.43,2.82-2.58,5.68-5.11,8.56-7.62,.31-.27,.95-.51,1.22-.36,.34,.19,.63,.78,.63,1.21,.06,2.55,.03,5.11,.03,7.78,.44,0,.82,0,1.2,0,2.11,0,4.21,.02,6.32-.01,.72-.01,1.26,.16,1.57,.85v.67Zm-35.38,26.3c4.34,4.92,6.46,10.69,6,17.29-.46,6.63-3.32,12.12-8.43,16.38-9.05,7.53-22.28,6.99-30.9-1.22-8.47-8.07-9.54-21.42-2.41-30.78,3.62-4.75,8.39-7.76,14.27-8.83,7.55-1.37,14.21,.67,19.87,5.54,2.64-2.64,5.24-5.23,7.83-7.82-13.09-12.51-35.01-12.71-48.48,1.59C-1.48,43.74-.46,66.5,14.81,79.4c14.7,12.42,37.18,10.48,49.37-5.29,11.43-14.78,8.14-34.32-2.23-44.51-2.58,2.58-5.16,5.16-7.78,7.78Zm-2.99-.04c-7.59-7.18-20.96-7.81-29.45,.95-8.49,8.77-7.91,22.79,1.23,30.77,9.15,7.99,23.08,6.75,30.61-2.72,7.41-9.32,5.06-21.57-.82-27.3-2.59,2.59-5.19,5.19-7.79,7.79,3.44,4.52,2.49,10.44-1.26,13.78-3.78,3.37-9.45,3.45-13.27,.19-3.92-3.35-4.74-8.98-1.92-13.26,1.4-2.13,3.34-3.56,5.8-4.22,3.31-.89,6.33-.16,9.05,1.88,2.57-2.57,5.1-5.09,7.62-7.61,.08-.08,.13-.18,.19-.26Zm-9.29,9.37c-3.17-2.71-8.32-2.14-11.12,1.16-2.9,3.42-2.43,8.56,1.05,11.46,3.44,2.86,8.6,2.33,11.45-1.15,2.83-3.46,1.89-8.26-.02-9.96-1.27,1.27-2.53,2.55-3.8,3.82-.6,.6-1.18,1.21-1.8,1.77-.43,.39-.95,.39-1.37-.02-.42-.41-.42-.9-.07-1.37,.15-.2,.35-.37,.52-.55,1.71-1.71,3.41-3.41,5.16-5.16ZM78.43,3.75c-2.39,2.12-4.62,4.09-6.82,6.09-.19,.17-.25,.55-.25,.83-.02,2.08-.01,4.16-.01,6.24,0,.58,0,1.16,0,1.79,2.84,0,5.56,.01,8.28-.02,.27,0,.6-.26,.8-.48,1.73-1.92,3.44-3.85,5.16-5.79,.19-.22,.36-.45,.63-.79-2.21,0-4.26,0-6.3,0-1.17,0-1.49-.32-1.49-1.5,0-2.04,0-4.09,0-6.36Z"/>
    </g>
  </g>
</svg>