<?xml version="1.0" encoding="UTF-8"?>
<svg id="_Слой_2" data-name="Слой 2" xmlns="http://www.w3.org/2000/svg" viewBox="0 0 76.61 81.55">
  <defs>
    <style>
      .cls-1 {
        fill: #fff;
      }
    </style>
  </defs>
  <g id="_Слой_1-2" data-name="Слой 1">
    <g id="EHrQ80.tif">
      <g>
        <path class="cls-1" d="M51.36,34.06c-.02-7.06-5.58-12.61-12.68-12.63-2.26,0-4.52,0-6.78,0h-3.95c-.31,0-.56-.25-.56-.56v-3.06c0-.31,.25-.56,.56-.56h1.81c1.33,0,2.64,0,3.94,0,1.15-.01,1.89-.65,1.9-1.62,0-.44-.15-.82-.43-1.1-.34-.34-.85-.53-1.44-.53-5.36-.01-10.72-.01-16.09,0-1.14,0-1.88,.64-1.89,1.62,0,.97,.74,1.61,1.88,1.63,1.03,.01,2.07,.01,3.1,0h1.79c.23,0,.45,.02,.68,.03l.27,.02c.29,.02,.52,.26,.52,.56v2.99c0,.31-.25,.56-.56,.56h-3.99c-2.29,0-4.58,0-6.87,0C5.55,21.46,.02,27,0,34.04,0,43.81,0,53.58,.02,63.34c0,.64,.08,1.27,.24,1.83,.72,2.55,3,4.28,5.7,4.31,1.24,.01,2.47,.01,3.75,0h1.85c.2,0,.39,.11,.48,.28,.1,.17,.1,.39,0,.56l-.53,.87c-.38,.63-.73,1.21-1.06,1.8-.36,.66-.85,.93-1.6,.93-1.59-.04-3.22-.03-4.79-.01-1.15,0-1.86,.67-1.86,1.63,0,.96,.72,1.61,1.79,1.62,.63,0,1.26,0,1.93,0h1c.2,0,.38,.1,.48,.27s.1,.38,0,.55l-.55,.98c-.5,.9-.3,1.83,.48,2.32,.83,.51,1.74,.25,2.32-.67,.22-.34,.42-.69,.63-1.04,.33-.56,.66-1.12,1.03-1.65,.25-.36,.8-.74,1.33-.74,8.95-.03,17.71-.03,26.06,0,.54,0,1.12,.41,1.38,.8,.34,.5,.65,1.03,.96,1.55,.24,.41,.48,.82,.74,1.21,.52,.8,1.43,1.02,2.22,.55,.77-.47,1-1.39,.54-2.25-.11-.21-.23-.41-.36-.64l-.24-.41c-.1-.17-.1-.38,0-.56,.1-.17,.28-.28,.48-.28h1.01s1.75,0,1.75,0c1.23,0,1.96-.61,1.97-1.62,0-.45-.14-.83-.42-1.11-.34-.34-.88-.53-1.52-.53h-1.88c-.98,0-1.96,0-2.93,0-.41,0-.92-.06-1.17-.43-.49-.75-.95-1.51-1.43-2.33l-.48-.81c-.1-.17-.11-.39,0-.56,.1-.17,.28-.28,.49-.28h1.78c1.25,0,2.44,0,3.63,0,3.55-.02,6.13-2.6,6.14-6.13,0-9.76,.02-19.53,0-29.3Zm-14.29,39.54c-.1,.17-.28,.28-.48,.28H14.78c-.2,0-.39-.11-.48-.28-.1-.17-.1-.39,0-.56l.46-.78c.45-.77,.89-1.49,1.35-2.2,.27-.41,.84-.52,1.14-.52,5.65-.01,11.3-.02,16.95,0,.4,0,.97,.24,1.23,.65,.42,.65,.79,1.33,1.19,2.04l.46,.81c.1,.17,.1,.38,0,.56Zm11.03-10.58c0,2.15-1.05,3.2-3.22,3.2H19.27s-12.76,0-12.76,0c-2.25,0-3.25-1.01-3.25-3.26v-4.38c0-8.04,0-16.08,0-24.12,0-5.84,3.93-9.77,9.78-9.77,8.48,0,16.96,0,25.44,0,5.58,0,9.62,4.06,9.63,9.66,0,8.09,0,16.18,0,24.27v4.41Z"/>
        <path class="cls-1" d="M75.18,23.72c-1.59-3.81-3.2-7.62-4.82-11.41-.32-.76-.21-1.3,.4-1.82,1.64-1.42,3.22-2.86,4.54-4.08,.82-.75,1.29-1.74,1.31-2.76,.02-.96-.35-1.87-1.04-2.57-.71-.71-1.63-1.12-2.58-1.07-1.04,.02-2.03,.5-2.8,1.34l-.71,.78c-1.1,1.2-2.23,2.45-3.3,3.7-.55,.63-1.09,.75-1.89,.4-2.96-1.29-5.93-2.55-8.9-3.82l-2.09-.89c-.39-.17-.84-.3-1.28-.3-.6,0-1.18,.24-1.6,.96-.56,.98-.25,2.01,.87,2.82l8.14,5.89c.17,.12,.34,.26,.53,.41l.28,.22c.12,.09,.2,.23,.21,.39,.01,.15-.03,.31-.14,.42l-1.15,1.31c-1.6,1.83-3.18,3.64-4.77,5.43-.26,.3-.69,.39-1,.41-1.78,.13-3.55,.25-5.33,.34-.55,.03-.84,.24-.98,.71-.08,.29-.12,.63,.54,.99,1.37,.73,2.7,1.44,3.99,2.22,.51,.3,.97,.77,1.27,1.28,.7,1.19,1.34,2.44,1.97,3.64l.2,.38c.38,.72,.64,.72,.94,.64,.55-.14,.78-.44,.81-1.06,.07-1.56,.18-3.23,.34-5.25,.03-.33,.17-.82,.51-1.12,1.72-1.54,3.46-3.06,5.23-4.6l1.4-1.23c.12-.1,.27-.15,.43-.14,.15,.02,.3,.1,.39,.22l.58,.78,6.04,8.34c.73,.96,1.72,1.23,2.66,.71,.94-.52,1.26-1.55,.81-2.62Z"/>
        <path class="cls-1" d="M37.02,29.3c-2.6,0-5.21,0-7.81,0h-3.47s-3.49,0-3.49,0c-1.16,0-2.32,0-3.49,0-1.49,0-2.99,0-4.48,0-3.69,.02-6.38,2.72-6.4,6.43-.01,2.12,0,4.25,0,6.37v.53c0,3.84,2.71,6.53,6.56,6.53,7.52,0,15.04,0,22.56,0,3.74,0,6.47-2.71,6.49-6.44,.01-2.33,.01-4.66,0-6.99-.02-3.73-2.74-6.44-6.48-6.45Zm3.22,13.33c0,2.03-1.26,3.29-3.26,3.29-3.76,0-7.51,0-11.27,0s-7.51,0-11.27,0c-2.06,0-3.29-1.25-3.3-3.34,0-2.21,0-4.43,0-6.64,0-2.14,1.22-3.37,3.34-3.38,2.63,0,5.26,0,7.89,0h14.39c2.3,0,3.47,1.18,3.48,3.51v1.06c0,1.83,0,3.66,0,5.49Z"/>
        <path class="cls-1" d="M18.82,58.03c0,.45,.14,.83,.42,1.11,.34,.34,.87,.53,1.51,.53,1.16,0,2.33,0,3.49,0h1.4s1.42,0,1.42,0c1.19,0,2.37,0,3.56,0,.64,0,1.17-.19,1.51-.53,.28-.28,.42-.67,.42-1.11-.01-.99-.73-1.61-1.88-1.61-3.32,0-6.64,0-9.96,0-1.15,0-1.87,.62-1.88,1.61Z"/>
        <path class="cls-1" d="M11.19,61.85c.9,.03,1.77-.32,2.42-.95,.65-.63,1.01-1.47,1.02-2.37,.02-1.86-1.48-3.4-3.36-3.42-.01,0-.03,0-.04,0-1.81,0-3.31,1.47-3.35,3.29-.04,1.9,1.41,3.42,3.31,3.46Z"/>
        <path class="cls-1" d="M40.17,55.11c-1.84-.08-3.37,1.41-3.43,3.25-.06,1.89,1.38,3.43,3.28,3.49,1.85,.05,3.4-1.38,3.47-3.21,.04-.92-.29-1.79-.91-2.46-.63-.67-1.48-1.05-2.41-1.08Z"/>
      </g>
    </g>
  </g>
</svg>