<?xml version="1.0" encoding="UTF-8"?>
<svg id="_Слой_2" data-name="Слой 2" xmlns="http://www.w3.org/2000/svg" viewBox="0 0 22.5 21.95">
  <defs>
    <style>
      .cls-1 {
        fill: #fff;
      }
    </style>
  </defs>
  <g id="_Слой_1-2" data-name="Слой 1">
    <path class="cls-1" d="M22.19,.47c-.2-.21-.48-.33-.77-.33L12.41,0c-.57-.02-1.11,.48-1.11,1.08s.48,1.11,1.08,1.12l6.35,.09L.34,20.07c-.44,.42-.45,1.12-.03,1.55,.22,.22,.5,.33,.79,.33s.55-.1,.76-.31L20.26,3.87l-.11,6.38c-.01,.61,.47,1.11,1.08,1.12h.02c.6,0,1.09-.48,1.1-1.08l.15-9.03c0-.29-.11-.57-.31-.78Z"/>
  </g>
</svg>