<?xml version="1.0" encoding="UTF-8"?>
<svg id="_Слой_2" data-name="Слой 2" xmlns="http://www.w3.org/2000/svg" viewBox="0 0 26.61 13.11">
  <defs>
    <style>
      .cls-1 {
        fill: #ff9300;
      }
    </style>
  </defs>
  <g id="_Слой_1-2" data-name="Слой 1">
    <path class="cls-1" d="M26.31,5.83L20.75,.29c-.39-.39-1.02-.39-1.41,0-.39,.39-.39,1.03,0,1.42l3.85,3.83H1c-.55,0-1,.45-1,1s.45,1,1,1H23.19l-3.86,3.86c-.39,.39-.39,1.02,0,1.41,.2,.2,.45,.29,.71,.29s.51-.1,.71-.29l5.57-5.57c.19-.19,.29-.44,.29-.71s-.11-.52-.29-.71Z"/>
  </g>
</svg>