<?xml version="1.0" encoding="UTF-8"?>
<svg id="_Слой_2" data-name="Слой 2" xmlns="http://www.w3.org/2000/svg" viewBox="0 0 81.49 81.49">
  <defs>
    <style>
      .cls-1 {
        fill: #fff;
      }

      .cls-2 {
        fill: #111010;
      }

      .cls-3 {
        fill: none;
        stroke: #fff;
        stroke-dasharray: 0 3.69;
        stroke-linecap: round;
        stroke-linejoin: round;
        stroke-width: 1.85px;
      }
    </style>
  </defs>
  <g id="_Слой_1-2" data-name="Слой 1">
    <g>
      <circle class="cls-2" cx="40.74" cy="40.74" r="40.74"/>
      <g id="vK8g0b.tif">
        <g>
          <path class="cls-1" d="M35.05,12c.56,.11,1.13,.18,1.67,.32,4.28,1.14,6.97,5.2,6.49,9.63-.37,3.44-1.64,6.55-3.3,9.53-1.43,2.57-2.98,5.08-4.49,7.61-.44,.74-1.38,.79-1.81,.07-2.07-3.45-4.31-6.82-5.95-10.51-1.03-2.33-1.76-4.74-1.92-7.31-.28-4.69,3.22-8.82,7.9-9.26,.11-.01,.23-.05,.34-.07,.35,0,.7,0,1.06,0Zm-.56,24.51c.09-.12,.14-.19,.19-.26,.89-1.48,1.8-2.96,2.66-4.46,1.37-2.38,2.61-4.82,3.31-7.5,.42-1.6,.71-3.22,.35-4.87-.75-3.51-3.98-5.73-7.54-5.21-3.37,.49-5.81,3.62-5.58,7.13,.1,1.56,.45,3.07,.97,4.54,1.36,3.8,3.54,7.16,5.64,10.64Z"/>
          <path class="cls-1" d="M34.52,17.18c2.06,0,3.72,1.68,3.71,3.74-.01,2.05-1.7,3.7-3.76,3.69-2.03-.01-3.68-1.68-3.68-3.72,0-2.07,1.66-3.71,3.73-3.71Zm-.01,5.32c.89,0,1.6-.71,1.6-1.59,0-.88-.71-1.6-1.59-1.61-.91,0-1.63,.7-1.62,1.61,0,.89,.71,1.58,1.6,1.58Z"/>
          <path class="cls-3" d="M46.03,23.45c3.63,.99,7.28,2.09,10.48,4.06,3.2,1.97,5.95,4.94,6.91,8.57,.96,3.64-.21,7.94-3.33,10.03-2.73,1.83-6.26,1.72-9.55,1.7s-6.91,.25-9.24,2.56c-2.62,2.6-2.65,6.76-2.5,10.45"/>
          <path class="cls-1" d="M35.87,69.77c2.02-1.65,4.03-3.31,6.05-4.96,.83-.68-.35-1.85-1.17-1.17-2.02,1.65-4.03,3.31-6.05,4.96-.83,.68,.35,1.85,1.17,1.17h0Z"/>
          <path class="cls-1" d="M35.02,65.09l6,4.83c.82,.66,2.01-.5,1.17-1.17l-6-4.83c-.82-.66-2.01,.5-1.17,1.17h0Z"/>
        </g>
      </g>
    </g>
  </g>
</svg>