<?xml version="1.0" encoding="UTF-8"?>
<svg id="_Слой_2" data-name="Слой 2" xmlns="http://www.w3.org/2000/svg" viewBox="0 0 81.49 81.49">
  <defs>
    <style>
      .cls-1 {
        fill: #fff;
        stroke: #fff;
        stroke-linecap: round;
        stroke-linejoin: round;
        stroke-width: .92px;
      }

      .cls-2 {
        fill: #111010;
      }
    </style>
  </defs>
  <g id="_Слой_1-2" data-name="Слой 1">
    <g>
      <circle class="cls-2" cx="40.74" cy="40.74" r="40.74"/>
      <g id="uq4png.tif">
        <g>
          <path class="cls-1" d="M59.37,33.06c.22-1.74,1.01-2.92,2.6-3.21,1.02-.19,2.09-.09,3.14-.05,.3,.01,.64,.24,.89,.45,.81,.68,1,2.64,.39,3.51-.33,.47-.79,.67-1.34,.67-.55,0-1.1,.02-1.66,0-1.14-.03-1.91,.58-2.45,1.54-.08,.14-.08,.4,0,.54,.89,1.64,1.06,3.41,1.04,5.26-.04,4.34-.01,8.68-.01,13.02,0,.18,0,.37,0,.55-.03,1.2-.38,1.56-1.55,1.57-2.71,0-5.41,0-8.12,0-1.24,0-1.58-.35-1.59-1.63-.01-1.19,0-2.38,0-3.57,0-.2,0-.4,0-.64H30.64c0,.6,0,1.18,0,1.76,0,.9,.02,1.8-.02,2.69-.05,1.06-.41,1.39-1.44,1.39-2.4,0-4.81,0-7.21,0-.43,0-.85,0-1.28,0-.84-.02-1.2-.34-1.29-1.2-.03-.24-.02-.48-.02-.71,0-4.58,.02-9.16-.01-13.74-.01-1.63,.21-3.18,1-4.6,.25-.45,.17-.78-.13-1.13-.56-.66-1.21-1.12-2.11-1.09-.57,.02-1.14,.02-1.71,0-1.04-.03-1.6-.68-1.67-1.74-.14-2.12,.69-3.13,2.85-2.95,.42,.03,.85,0,1.28,0,1.46,.04,2.7,1.08,3.04,2.54,.03,.14,.07,.28,.13,.54,.13-.26,.21-.43,.28-.6,.93-2.08,1.83-4.17,2.81-6.22,.43-.9,.93-1.77,1.52-2.57,.87-1.17,2.08-1.73,3.53-1.73,7,0,13.99,0,20.99,0,1.43,0,2.62,.57,3.48,1.72,.6,.81,1.11,1.7,1.54,2.62,1.07,2.27,2.07,4.57,3.17,7Zm-7.99,17.96c0,1.63-.01,3.2,0,4.77,0,.45,.38,.46,.71,.46,2.74,0,5.48,0,8.23,0,.9,0,.99-.09,.99-1.05,0-4.93,.03-9.86-.03-14.78-.01-.94-.24-1.94-.61-2.81-1.62-3.76-3.32-7.49-5.02-11.21-.35-.77-.77-1.53-1.24-2.23-.79-1.16-1.89-1.79-3.31-1.79-6.94,0-13.89,0-20.83,0-1.3,0-2.39,.47-3.16,1.53-.57,.79-1.06,1.65-1.46,2.54-1.66,3.6-3.26,7.24-4.9,10.85-.49,1.08-.75,2.2-.75,3.39,0,4.32,0,8.65,0,12.97,0,.62,0,1.25,0,1.87,0,.48,.2,.73,.72,.72,2.85-.01,5.7-.01,8.55,0,.48,0,.69-.2,.7-.68,0-.9,.01-1.8,.01-2.69,0-.6,0-1.2,0-1.86-.28,0-.49,0-.7,0-2.33,0-4.66,0-7-.01-.19,0-.39-.2-.58-.31,.19-.11,.38-.23,.58-.33,.04-.02,.11,0,.16,0,12.14,0,24.28,0,36.43,0,.14,0,.3-.03,.42,.02,.12,.06,.21,.2,.31,.31-.11,.11-.19,.25-.32,.3-.14,.06-.32,.02-.48,.02-2.26,0-4.52,0-6.78,0-.21,0-.42,0-.66,0Zm-30.03-17.27c.3-2.15-1.15-3.29-2.36-3.34-.76-.03-1.53-.02-2.3,0-.59,.01-1.11,.38-1.21,.97-.09,.55-.09,1.13-.03,1.69,.04,.41,.38,.68,.8,.68,1.69,.02,3.38,0,5.09,0Zm38.77,.01c.18,0,.37,0,.57,0,1.17,0,2.35,0,3.52,0,1.75,0,1.92-.19,1.84-1.99-.04-.81-.58-1.36-1.37-1.37-.61-.01-1.21,0-1.82,0-1.89,0-3.02,1.36-2.74,3.37Zm1.12,.7h-1.23c.15,.35,.28,.63,.43,.95,.28-.33,.52-.61,.8-.95Zm-39.91,0h-1.12c.26,.31,.48,.56,.73,.85,.13-.28,.25-.54,.39-.85Z"/>
          <path class="cls-1" d="M40.62,35.12c-4.79,0-9.57,0-14.36,0-.16,0-.32,0-.48,0-1.15-.03-1.67-.86-1.2-1.93,.98-2.25,1.98-4.5,2.96-6.75,.09-.2,.18-.4,.26-.6,.43-1.09,1.21-1.6,2.36-1.59,2.24,.02,4.48,0,6.73,0,4.56,0,9.11,.02,13.67-.01,1.31,0,2.19,.54,2.75,1.75,1.1,2.38,2.24,4.73,3.37,7.1,.54,1.15,.03,2.02-1.21,2.03-4.95,0-9.89,0-14.84,0Zm.06-.66c4.89,0,9.79,0,14.68,0,.89,0,1.1-.34,.71-1.16-1.11-2.33-2.24-4.65-3.33-7-.45-.98-1.12-1.4-2.18-1.4-4.98,.03-9.97,.01-14.95,.01-1.78,0-3.56,.03-5.34-.01-.97-.02-1.59,.38-1.93,1.3-.1,.29-.24,.57-.37,.85-.94,2.13-1.88,4.26-2.82,6.4-.28,.64-.06,.98,.62,1,.14,0,.28,0,.43,0,4.82,0,9.65,0,14.47,0Z"/>
          <path class="cls-1" d="M40.73,40.19c2.65,0,5.3,0,7.96,0,.37,0,.59,.14,.87,.39,.98,.89,1.09,1.81,.51,3.03-.57,1.19-.93,2.49-1.36,3.75-.13,.37-.3,.55-.73,.55-4.88-.02-9.75-.01-14.63,0-.39,0-.57-.13-.7-.5-.58-1.67-1.17-3.34-1.78-4.99-.13-.34-.09-.6,.16-.84,.01-.01,.02-.03,.03-.04,.6-1.12,1.5-1.42,2.73-1.36,2.31,.11,4.63,.03,6.94,.03Zm7.33,7.04c.55-1.54,1.09-3.05,1.63-4.56,.28-.79-.44-1.82-1.27-1.82-4.96,0-9.93,.02-14.89-.02-.81,0-1.38,.17-1.82,.89-.17,.27-.25,.47-.13,.78,.52,1.4,1.03,2.8,1.51,4.22,.13,.39,.3,.52,.71,.52,2.83-.02,5.66-.01,8.49-.01,1.9,0,3.81,0,5.77,0Z"/>
          <path class="cls-1" d="M28.91,41.56c-.81-.18-1.52-.33-2.23-.48-1.25-.27-2.5-.52-3.75-.82-.17-.04-.3-.27-.45-.42,.19-.07,.4-.23,.57-.2,1.93,.39,3.86,.8,5.78,1.23,.15,.03,.26,.26,.39,.4-.12,.1-.23,.21-.31,.28Z"/>
          <path class="cls-1" d="M52.43,41.56c-.08-.07-.2-.17-.32-.28,.13-.14,.24-.37,.39-.41,1.38-.32,2.78-.61,4.17-.91,.57-.12,1.14-.26,1.72-.35,.14-.02,.31,.14,.47,.22-.1,.13-.18,.35-.3,.37-2.01,.46-4.02,.89-6.13,1.35Z"/>
        </g>
      </g>
    </g>
  </g>
</svg>