<?xml version="1.0" encoding="UTF-8"?>
<svg id="_Слой_2" data-name="Слой 2" xmlns="http://www.w3.org/2000/svg" viewBox="0 0 81.49 81.49">
  <defs>
    <style>
      .cls-1 {
        fill: #fff;
      }

      .cls-2 {
        fill: #111010;
      }
    </style>
  </defs>
  <g id="_Слой_1-2" data-name="Слой 1">
    <g>
      <circle class="cls-2" cx="40.74" cy="40.74" r="40.74"/>
      <g id="jokLxr.tif">
        <g>
          <path class="cls-1" d="M25.84,49.92c-.47,.1-.95,.15-1.4,.3-.64,.22-1.12,.07-1.58-.4-1.52-1.55-3.07-3.07-4.6-4.61-.7-.7-.7-1.28,0-1.99,4.19-4.2,8.39-8.39,12.58-12.58,4.5-4.5,9.01-9.01,13.51-13.51,.94-.94,1.38-.94,2.34,.02,1.45,1.45,2.88,2.91,4.35,4.33,.52,.51,.68,1.01,.45,1.73-.54,1.66-.15,3.16,1.06,4.38,1.22,1.22,2.72,1.61,4.38,1.08,.71-.23,1.22-.09,1.74,.44,1.49,1.53,3.01,3.02,4.51,4.53,.73,.74,.73,1.29,0,2.03-8.74,8.74-17.48,17.48-26.22,26.22-.73,.73-1.29,.72-2.03-.02-1.49-1.49-2.97-3-4.48-4.47-.54-.53-.7-1.04-.46-1.79,.88-2.8-1.21-5.63-4.14-5.7Zm10.1,9.66c8.31-8.31,16.65-16.65,24.92-24.92-1.08-1.13-2.2-2.31-3.35-3.46-.13-.13-.41-.18-.6-.15-1.07,.18-2.12,.13-3.16-.18-3.16-.96-5.1-4.03-4.64-7.32,.04-.25,.1-.63-.03-.76-1.19-1.19-2.41-2.35-3.56-3.45-8.29,8.29-16.63,16.63-24.9,24.9,1.08,1.13,2.2,2.31,3.35,3.46,.13,.13,.41,.18,.6,.15,1.07-.18,2.12-.13,3.16,.18,3.2,.97,5.08,4.02,4.63,7.45-.03,.25,0,.61,.17,.77,1.13,1.14,2.3,2.25,3.42,3.33Z"/>
          <path class="cls-1" d="M47.92,38.3c0,.67-.39,1.12-1.14,1.27-3.52,.67-7.04,1.34-10.56,2.01-.35,.07-.7,.14-1.04,.2-.8,.15-1.45-.24-1.59-.93-.15-.76,.28-1.36,1.11-1.52,3.3-.63,6.59-1.25,9.89-1.88,.61-.12,1.23-.25,1.84-.35,.81-.13,1.48,.42,1.49,1.2Z"/>
          <path class="cls-1" d="M45.38,44.61c0,1.84-1.8,3.7-3.59,3.69-1.75,0-3.38-1.64-3.4-3.38-.01-1.74,1.84-3.63,3.58-3.65,1.74-.03,3.4,1.61,3.4,3.35Zm-2.23-.51c0-.45-.39-.73-.81-.56-.79,.31-1.35,.89-1.67,1.67-.17,.41,.14,.82,.57,.82,.66,0,1.92-1.27,1.92-1.93Z"/>
          <path class="cls-1" d="M36.1,34.17c.01-1.76,1.85-3.59,3.62-3.58,1.71,0,3.39,1.69,3.37,3.39-.01,1.73-1.88,3.65-3.53,3.62-1.86-.03-3.47-1.63-3.46-3.43Zm2.23,.6c0,.44,.38,.75,.8,.58,.79-.31,1.35-.88,1.68-1.66,.17-.41-.12-.83-.55-.84-.64-.02-1.92,1.25-1.93,1.91Z"/>
        </g>
      </g>
    </g>
  </g>
</svg>